<?xml version="1.0" encoding="UTF-8" standalone="no"?>
<!-- Created with Inkscape (http://www.inkscape.org/) -->

<svg
   xmlns:dc="http://purl.org/dc/elements/1.1/"
   xmlns:cc="http://creativecommons.org/ns#"
   xmlns:rdf="http://www.w3.org/1999/02/22-rdf-syntax-ns#"
   xmlns:svg="http://www.w3.org/2000/svg"
   xmlns="http://www.w3.org/2000/svg"
   xmlns:sodipodi="http://sodipodi.sourceforge.net/DTD/sodipodi-0.dtd"
   xmlns:inkscape="http://www.inkscape.org/namespaces/inkscape"
   width="215.89188mm"
   height="139.44797mm"
   viewBox="0 0 764.97121 494.10697"
   id="svg2"
   version="1.1"
   inkscape:version="0.91 r13725"
   sodipodi:docname="nucypher_logo.svg">
  <defs
     id="defs4" />
  <sodipodi:namedview
     id="base"
     pagecolor="#ffffff"
     bordercolor="#666666"
     borderopacity="1.0"
     inkscape:pageopacity="0.0"
     inkscape:pageshadow="2"
     inkscape:zoom="1.4"
     inkscape:cx="228.57476"
     inkscape:cy="220.6422"
     inkscape:document-units="px"
     inkscape:current-layer="layer1"
     showgrid="false"
     fit-margin-top="0"
     fit-margin-left="0"
     fit-margin-right="0"
     fit-margin-bottom="0"
     inkscape:window-width="2560"
     inkscape:window-height="1349"
     inkscape:window-x="0"
     inkscape:window-y="46"
     inkscape:window-maximized="1" />
  <metadata
     id="metadata7">
    <rdf:RDF>
      <cc:Work
         rdf:about="">
        <dc:format>image/svg+xml</dc:format>
        <dc:type
           rdf:resource="http://purl.org/dc/dcmitype/StillImage" />
        <dc:title></dc:title>
      </cc:Work>
    </rdf:RDF>
  </metadata>
  <g
     inkscape:label="Layer 1"
     inkscape:groupmode="layer"
     id="layer1"
     transform="translate(-315.37571,-528.18167)">
    <g
       id="g4146"
       transform="matrix(1.25,0,0,-1.25,971.78571,1393.0765)" />
    <path
       inkscape:connector-curvature="0"
       id="path4152"
       style="fill:#1e65f3;fill-opacity:1;fill-rule:nonzero;stroke:none"
       d="m 900.33713,528.44186 -63.7687,30.25375 c -0.655,0.3075 -1.1575,0.865 -1.4013,1.54375 -0.245,0.6825 -0.21,1.435 0.1025,2.09 l 96.9825,204.4275 c 36.035,76.05 26.3813,133.7412 -28.4037,159.81 -44.3413,21.045 -82.6175,6.3625 -112.48,-44.9025 l -114.825,-242.065 c -46.5675,-98.125 -109.99,-124.13125 -185.2238,-88.4425 -48.9462,23.2175 -77.335,64.72125 -76.7725,117.3975 0.024,1.28375 -0.85,2.4075 -2.1,2.7 -1.245,0.2975 -2.5337,-0.3225 -3.0862,-1.47875 l -25.0688,-52.8125 c -0.3075,-0.655 -0.8637,-1.1625 -1.5475,-1.4025 -0.6837,-0.24375 -1.435,-0.2 -2.085,0.1175 l -63.74999,30.15625 c -1.3325,0.645 -1.90375,2.23125 -1.28375,3.575 l 176.10374,371.32254 c 0.6488,1.3575 2.27,1.9337 3.6325,1.2987 l 63.765,-30.25374 c 0.6588,-0.3075 1.1613,-0.8638 1.4063,-1.5475 0.2437,-0.6838 0.205,-1.4362 -0.1025,-2.09 l -94.2725,-198.71125 c -38.4038,-80.96625 -31.1188,-139.51625 27.7637,-167.45125 45.185,-21.435 80.3125,-7.02125 111.85,47.89625 0.039,0.0625 0.079,0.13125 0.1075,0.2 l 113.7013,239.71625 c 43.8675,92.43624 112.0062,124.18004 183.97,90.04 55.62,-26.3825 78.6812,-66.0988 77.3337,-118.335 -0.03,-1.29 0.84,-2.4175 2.09,-2.715 1.255,-0.3038 2.5438,0.3175 3.095,1.4737 l 25.31747,53.3788 c 0.3075,0.66 0.87,1.1625 1.5475,1.4062 0.6838,0.2451 1.4363,0.2063 2.09,-0.1025 l 63.765,-30.2537 c 0.655,-0.3125 1.1625,-0.8688 1.4013,-1.5525 0.2437,-0.6838 0.2,-1.43 -0.1175,-2.085 L 903.97093,529.74061 c -0.65,-1.3575 -2.2713,-1.93875 -3.6338,-1.29875 z" />
  </g>
</svg>
